<?xml version="1.0" encoding="UTF-8" standalone="no"?>
<!-- Generator: Adobe Illustrator 13.0.0, SVG Export Plug-In . SVG Version: 6.00 Build 14948)  -->

<svg
   version="1.0"
   id="svg3671"
   x="0px"
   y="0px"
   width="325.842px"
   height="300px"
   viewBox="0 0 325.842 300"
   enable-background="new 0 0 325.842 300"
   xml:space="preserve"
   xmlns="http://www.w3.org/2000/svg"
   xmlns:svg="http://www.w3.org/2000/svg"><defs
   id="defs38" />
<g
   id="g2384">
	<g
   id="XMLID_1_">
		<g
   id="g22">
			<path
   fill="#00287A"
   d="M315.841,61.42v177.16c0,28.67-25.3,51.91-56.5,51.91H66.501c-31.2,0-56.5-23.24-56.5-51.91V61.42     c0-28.67,25.3-51.91,56.5-51.91h192.84C290.541,9.51,315.841,32.75,315.841,61.42z"
   id="path20" />
		</g>
		<g
   id="g26">
			<path
   fill="none"
   stroke="#000000"
   stroke-width="7.5827"
   d="M66.501,9.51h192.84c31.2,0,56.5,23.24,56.5,51.91v177.16     c0,28.67-25.3,51.91-56.5,51.91H66.501c-31.2,0-56.5-23.24-56.5-51.91V61.42C10.001,32.75,35.301,9.51,66.501,9.51z"
   id="path24" />
		</g>
	</g>
	<path
   id="path18"
   fill="#1D130C"
   stroke="#FFFFFF"
   stroke-width="3"
   stroke-linecap="round"
   stroke-linejoin="round"
   d="   M117.982,57.072l58.069,0.134c12.137-0.089,21.198,1.805,27.185,5.682c7.309,4.754,10.963,12.932,10.963,24.534   c0,19.104-9.062,29.925-27.185,32.466v0.267c7.992,1.946,12.032,8.416,12.122,19.409c0,5.63-0.216,12.841-0.646,21.636   c0,5.897,1.277,11,3.832,15.309h-31.819c-1.485-1.574-2.229-4.783-2.229-9.627c0.609-8.096,0.914-14.736,0.914-19.92   c0-10.473-5.147-15.709-15.442-15.709h-20.589l-8.98,42.36H93.181L117.982,57.072z M167.071,81.36h-22.817l-5.949,28.121h24.689   c13.8,0,20.745-5.326,20.834-15.977C183.828,85.408,178.242,81.36,167.071,81.36z" />
	<path
   id="path30"
   d="M206.534,178.096l22.974-38.927l6.194,39.195h39.195l-35.362,24.824l5.659,38.928l-30.616-23.486   l-41.156,24.422l19.252-41.446l-22.438-23.62L206.534,178.096z" />
	
	<path
   id="path3659"
   fill="#FFFFFF"
   d="M233.318,198.679l23.485-16.355h-25.981l-4.501-28.366l-16.489,28.1h-26.249l15.954,16.756   l-13.191,28.121l28.634-16.891l22.572,17.291L233.318,198.679z" />
</g>
</svg>
